# xmcd
#
# Track frame offsets:
#	150
#	15567
#	31403
#	43962
#	61204
#	78134
#	94819
#	109378
#	128910
#	145545
#	161522
#	176209
#	192018
#	206224
#	221240
#	235033
#	247740
#
# Disc length: 3508 seconds
#
# Revision: 0
# Processed by: cddbd v1.5.2PL0 Copyright (c) Steve Scherf et al.
# Submitted via: EasyCDDAExtractor 16.0.6.1
#
DISCID=e90db211
DTITLE=Kandis - Kandis 18
DYEAR=2018
DGENRE=Dansktop
TTITLE0=Så Gi'r Vi Den Gas
TTITLE1=Det Var Tider
TTITLE2=Det' Lørdag
TTITLE3=Aldrig Leve Uden Dig
TTITLE4=En Enkelt Øl
TTITLE5=Født Til Kærligheden
TTITLE6=Hvor Roserne Blomstrer
TTITLE7=Despacito
TTITLE8=The Perfect Man
TTITLE9=Barlington Hotel
TTITLE10=I Said I Love You
TTITLE11=Forelsket 1000 Gange
TTITLE12=I Gode Venners Lag
TTITLE13=Jeg Står Alene Her
TTITLE14=Jessica
TTITLE15=La' Mig Være Den
TTITLE16=Ondt I Håret
EXTD=
EXTT0=
EXTT1=
EXTT2=
EXTT3=
EXTT4=
EXTT5=
EXTT6=
EXTT7=
EXTT8=
EXTT9=
EXTT10=
EXTT11=
EXTT12=
EXTT13=
EXTT14=
EXTT15=
EXTT16=
PLAYORDER=
